<?xml version="1.0" encoding="utf-8"?>
<?xml-stylesheet type="text/xsl" href="rss1.xsl"?>
<rss version="2.0" xmlns:atom="http://www.w3.org/2005/Atom" xmlns:content="http://purl.org/rss/1.0/modules/content/" xmlns:dc="http://purl.org/dc/elements/1.1/" xmlns:media="http://search.yahoo.com/mrss/">
<channel>
 <title>Getty</title>
 <link>http://www.gettyimg.com/</link>
 <atom:link href="http://www.gettyimg.com/" rel="self" type="application/rss+xml" />

 
                <item>
                <title><![CDATA[【HD Live Performances】UPSCALE - Avril Lavigne - When You're Gone (Festivalbar 2007) HD Upscale]]></title>
                <link><![CDATA[https://sharemania.us/threads/avril-lavigne-when-youre-gone-festivalbar-2007-hd-upscale.234620/]]></link>
                <description><![CDATA[<article>
<blockquote class="messageText SelectQuoteContainer ugc baseHtml">
<img src="https://i.imgur.com/8QZMPVX.png" class="bbCodeImage LbImage" alt="[​IMG]" data-url="https://i.imgur.com/8QZMPVX.png" style=""> <img src="https://i.imgur.com/AbLe9st.png" class="bbCodeImage LbImage" alt="[​IMG]" data-url="https://i.imgur.com/AbLe9st.png" style=""> <img src="https://i.imgur.com/8dWoJs4.png" class="bbCodeImage LbImage" alt="[​IMG]" data-url="https://i.imgur.com/8dWoJs4.png" style=""> <img src="https://i.imgur.com/Jr2awjE.png" class="bbCodeImage LbImage" alt="[​IMG]" data-url="https://i.imgur.com/Jr2awjE.png" style=""> <br>
<br>
<div class="ToggleTriggerAnchor bbCodeSpoilerContainer">
<button type="button" class="button bbCodeSpoilerButton ToggleTrigger Tooltip JsOnly" data-target="> .SpoilerTarget"><span>Spoiler: <span class="SpoilerTitle">MediaInfo</span></span></button>
<div class="SpoilerTarget bbCodeSpoilerText">General<br>
File size : 1.15 GiB<br>
Duration : 6 min 17 s<br>
Overall bit rate : 26.2 Mb/s<br>
Writing application : Lavf60.14.101<br>
Writing library : Lavf60.14.101<br>
ErrorDetectionType : Per level 1<br>
<br>
Video<br>
ID : 1<br>
Format : HEVC<br>
Format/Info : High Efficiency Video Coding<br>
Format profile : Main@L6.2@High<br>
Codec ID : V_MPEGH/ISO/HEVC<br>
Duration : 6 min 17 s<br>
Bit rate : 23.4 Mb/s<br>
Width : 1 320 pixels<br>
Height : 1 080 pixels<br>
Display aspect ratio : 4:3<br>
Frame rate mode : Constant<br>
Frame rate : 25.000 FPS<br>
Color space : YUV<br>
Chroma subsampling : 4:2:0<br>
Bit depth : 8 bits<br>
Bits/(Pixel*Frame) : 0.656<br>
Stream size : 1.03 GiB (89%)<br>
Writing library : Lavc60.27.101 hevc_amf<br>
Default : No<br>
Forced : No<br>
Color range : Limited<br>
Transfer characteristics : BT.709<br>
Matrix coefficients : BT.709<br>
<br>
Audio<br>
ID : 2<br>
Format : PCM<br>
Format settings : Little / Signed<br>
Codec ID : A_PCM/INT/LIT<br>
Duration : 6 min 17 s<br>
Bit rate mode : Constant<br>
Bit rate : 2 304 kb/s<br>
Channel(s) : 2 channels<br>
Sampling rate : 48.0 kHz<br>
Bit depth : 24 bits<br>
Stream size : 104 MiB (9%)<br>
Writing library : Lavc60.27.101 hevc_amf<br>
Default : No<br>
Forced : No</div>
</div><br>
<div class="bbCodeBlock bbCodeVfcHH HiddenContent">
<div class="attribution type">Hidden Content:</div>
<blockquote>You must reply before you can see the hidden data contained here.</blockquote>
</div>
<div class="messageTextEndMarker">&nbsp;</div>
</blockquote>
</article>]]></description>
                <author><![CDATA[Avril1255]]></author>
                </item>

                
                <item>
                <title><![CDATA[【Requests】[REQ AUD] - Flac 2 Tracks, 4 Albums]]></title>
                <link><![CDATA[https://sharemania.us/threads/flac-2-tracks-4-albums.234621/]]></link>
                <description><![CDATA[<article>
<blockquote class="messageText SelectQuoteContainer ugc baseHtml">
Thanks!
<div class="messageTextEndMarker">&nbsp;</div>
</blockquote>
</article>]]></description>
                <author><![CDATA[swag044]]></author>
                </item>

                </channel></rss>